<svg width="119" height="119" viewBox="0 0 119 119" fill="none" xmlns="http://www.w3.org/2000/svg">
<g id="eos-icons:admin-outlined">
<path id="Vector" d="M59.5 114.042C31.9465 107.918 9.91663 81.9215 9.91663 54.5416V24.7916L59.5 4.95825L109.083 24.7916V54.5416C109.083 81.9314 87.0534 107.918 59.5 114.042ZM19.8333 29.7499V54.5416C20.1166 66.0059 24.1488 77.0615 31.3127 86.0164C38.4766 94.9712 48.3775 101.332 59.5 104.125C70.6224 101.332 80.5233 94.9712 87.6872 86.0164C94.8511 77.0615 98.8833 66.0059 99.1666 54.5416V29.7499L59.5 14.8749L19.8333 29.7499Z" fill="#E9EFF6"/>
<path id="Vector_2" d="M59.5 54.5417C66.346 54.5417 71.8958 48.9919 71.8958 42.1458C71.8958 35.2998 66.346 29.75 59.5 29.75C52.6539 29.75 47.1041 35.2998 47.1041 42.1458C47.1041 48.9919 52.6539 54.5417 59.5 54.5417Z" fill="#E9EFF6"/>
<path id="Vector_3" d="M34.7084 74.375C37.1515 78.8293 40.7347 82.5541 45.091 85.1678C49.4473 87.7816 54.4201 89.1904 59.5 89.25C64.58 89.1904 69.5528 87.7816 73.9091 85.1678C78.2654 82.5541 81.8486 78.8293 84.2917 74.375C84.1677 64.974 67.721 59.5 59.5 59.5C51.2345 59.5 34.8323 64.974 34.7084 74.375Z" fill="#E9EFF6"/>
</g>
</svg>
